<?xml version="1.0" encoding="utf-8"?>
<!-- Generator: Adobe Illustrator 16.0.0, SVG Export Plug-In . SVG Version: 6.00 Build 0)  -->
<!DOCTYPE svg PUBLIC "-//W3C//DTD SVG 1.0//EN" "http://www.w3.org/TR/2001/REC-SVG-20010904/DTD/svg10.dtd">
<svg version="1.0" id="Layer_1" xmlns="http://www.w3.org/2000/svg" xmlns:xlink="http://www.w3.org/1999/xlink" x="0px" y="0px"
	 width="800px" height="800px" viewBox="0 0 800 800" enable-background="new 0 0 800 800" xml:space="preserve">
<g>
	<g>
		<path fill="#F69320" d="M396.192,287.803l-19.036,76.146c22.843,3.804,87.568,26.648,98.987-15.233
			C487.567,306.838,419.032,295.416,396.192,287.803z M369.543,405.827l-19.037,83.762c26.65,7.613,106.605,30.457,118.024-15.23
			C476.144,424.864,396.192,409.638,369.543,405.827z M483.757,63.173C297.206,17.485,110.647,127.897,64.958,314.451
			C19.271,504.819,129.683,691.372,316.24,737.059c186.554,45.691,373.114-68.527,418.801-255.087
			C780.729,299.225,670.316,108.858,483.757,63.173z M552.292,352.525c-3.811,34.262-22.848,49.496-49.498,57.113
			c34.268,19.033,49.498,45.684,34.268,91.371c-19.037,57.111-68.531,64.725-133.256,53.3l-15.228,64.726l-38.071-11.42
			l15.229-60.919c-11.424-3.807-19.038-3.807-30.459-7.612l-15.23,57.106l-38.07-11.42l15.23-64.724
			c-7.618-3.807-19.04-3.807-26.654-7.613l-49.492-11.424l19.035-45.688l26.648,7.617c11.423,7.613,15.232,0,19.041-3.811
			l26.648-98.987h3.808h-3.808l19.035-72.337c0-7.618-3.805-19.04-19.035-22.846l-26.648-7.613l11.422-41.882l53.301,11.421l0,0
			c7.613,3.809,15.229,3.809,22.843,7.618l15.228-64.724l38.077,11.421l-19.042,64.725c11.42,3.804,19.042,3.804,30.461,7.613
			l15.231-60.915l38.074,11.417l-15.235,64.725C525.638,280.186,559.905,303.029,552.292,352.525z"/>
	</g>
</g>
</svg>
