<?xml version="1.0" encoding="UTF-8"?>
<svg id="logosandtypes_com" data-name="logosandtypes com" xmlns="http://www.w3.org/2000/svg" viewBox="0 0 150 150">
  <defs>
    <style>
      .cls-1 {
        fill: #345d9d;
      }

      .cls-2 {
        fill: none;
      }
    </style>
  </defs>
  <path class="cls-2" d="M0,0H150V150H0V0Z"/>
  <path class="cls-1" d="M75,9.13C38.4,9.13,8.73,38.8,8.73,75.4s29.67,66.27,66.27,66.27,66.27-29.67,66.27-66.27h0c0-36.6-29.67-66.27-66.27-66.27Zm1.07,68.45l-6.89,23.26h36.87c1.04,0,1.89,.85,1.89,1.9,0,.18-.03,.35-.08,.52l-3.21,11.05c-.31,1.08-1.31,1.83-2.44,1.83H45.9l9.52-32.16-10.53,3.21,2.32-7.52,10.55-3.21,13.37-45.18c.3-1.09,1.29-1.84,2.42-1.84h14.27c1.04,0,1.89,.84,1.9,1.88,0,.18-.02,.35-.07,.52l-11.22,38.2,10.53-3.21-2.26,7.65-10.63,3.09Z"/>
</svg>